<svg width="22" height="21" viewBox="0 0 22 21" fill="none" xmlns="http://www.w3.org/2000/svg">
<path d="M13.4009 5.24769L13.4009 5.24769L13.3992 5.24939L9.42292 9.21703C9.42259 9.21736 9.42226 9.21768 9.42193 9.21801C9.26619 9.37274 9.14254 9.55673 9.0581 9.7594C8.97349 9.9625 8.92993 10.1803 8.92993 10.4004C8.92993 10.6204 8.97349 10.8382 9.0581 11.0413C9.14256 11.244 9.26623 11.428 9.42202 11.5828C9.42232 11.5831 9.42262 11.5834 9.42292 11.5837L13.3992 15.5513L13.4009 15.553C13.4072 15.5592 13.4121 15.5666 13.4155 15.5747C13.4189 15.5828 13.4206 15.5916 13.4206 15.6004C13.4206 15.6092 13.4189 15.6179 13.4155 15.626C13.4121 15.6341 13.4072 15.6415 13.4009 15.6477L13.4009 15.6477C13.3947 15.6539 13.3873 15.6588 13.3792 15.6621C13.3711 15.6654 13.3624 15.6671 13.3536 15.667L13.3523 15.667C13.3351 15.667 13.3185 15.6602 13.3062 15.6482C13.306 15.648 13.3058 15.6479 13.3057 15.6477L9.33032 11.6724C9.33022 11.6723 9.33011 11.6721 9.33 11.672C9.32999 11.672 9.32998 11.672 9.32997 11.672C8.99311 11.3345 8.80391 10.8772 8.80391 10.4004C8.80391 9.9234 8.99321 9.46594 9.33023 9.12845C9.33026 9.12842 9.33029 9.12839 9.33032 9.12836L13.3063 5.15239C13.3064 5.15227 13.3065 5.15215 13.3067 5.15202C13.3191 5.13984 13.3358 5.13301 13.3533 5.13301C13.3709 5.13301 13.3878 5.13998 13.4003 5.15239L13.4009 5.15303C13.4072 5.15923 13.4121 5.1666 13.4155 5.17472C13.4189 5.18284 13.4206 5.19156 13.4206 5.20036C13.4206 5.20917 13.4189 5.21788 13.4155 5.226C13.4121 5.23412 13.4072 5.2415 13.4009 5.24769Z" fill="#061020" stroke="#081427" stroke-width="1.6"/>
</svg>
