<svg width="23" height="23" viewBox="0 0 23 23" fill="none" xmlns="http://www.w3.org/2000/svg">
<path d="M14.4072 9.98695C14.4073 9.98706 14.4074 9.98717 14.4075 9.98728C14.7819 10.3622 14.9921 10.8704 14.9921 11.4003C14.9921 11.9303 14.7817 12.4386 14.4072 12.8136L10.1256 17.0953C10.1254 17.0954 10.1252 17.0956 10.125 17.0958C10.0999 17.1205 10.066 17.1343 10.0308 17.1341C9.99527 17.134 9.96128 17.1198 9.93626 17.0946C9.91125 17.0694 9.89726 17.0353 9.89739 16.9998C9.89751 16.9643 9.91174 16.9303 9.93693 16.9053L9.9377 16.9045L14.2299 12.631C14.2301 12.6308 14.2303 12.6306 14.2305 12.6304C14.3927 12.4694 14.5215 12.2779 14.6094 12.0669C14.6974 11.8557 14.7427 11.6291 14.7427 11.4003C14.7427 11.1715 14.6974 10.9449 14.6094 10.7337C14.5215 10.5227 14.3927 10.3312 14.2305 10.1702C14.2303 10.17 14.2301 10.1698 14.2299 10.1696L9.9377 5.89603L9.9377 5.89603L9.93661 5.89495C9.92411 5.88256 9.91419 5.86781 9.90742 5.85156C9.90065 5.83531 9.89717 5.81788 9.89717 5.80028C9.89717 5.78268 9.90065 5.76526 9.90742 5.74901C9.91419 5.73276 9.92411 5.71801 9.93661 5.70562L9.93661 5.70562L9.93725 5.70498C9.96223 5.68015 9.99602 5.66621 10.0312 5.66621C10.0663 5.66621 10.0998 5.67998 10.1248 5.70452C10.1249 5.70468 10.1251 5.70483 10.1252 5.70498L14.4072 9.98695Z" fill="#061020" stroke="#081427" stroke-width="1.6"/>
</svg>
